<svg xmlns="http://www.w3.org/2000/svg" width="16" height="21" viewBox="0 0 16 21">
    <g fill="none" fill-rule="evenodd" opacity=".9">
        <path d="M0 .463h15.48v19.426H0z"/>
        <path fill="#FFF" d="M7.739 10.275c2.606 0 4.718-2.197 4.718-4.903 0-2.712-2.112-4.91-4.718-4.91-2.605 0-4.716 2.198-4.716 4.91 0 2.706 2.11 4.903 4.716 4.903zM.76 20.053h13.958c-.164-.742-.285-1.966-.427-2.712-.612-3.18-3.313-5.577-6.55-5.577-3.239 0-5.941 2.396-6.551 5.577-.144.746-.263 1.97-.43 2.712z"/>
    </g>
</svg>
