<svg xmlns="http://www.w3.org/2000/svg" width="21" height="22" viewBox="0 0 21 22">
    <g fill="#5A93EA" fill-rule="evenodd">
        <path d="M3.377 12.622c0-.862-.704-1.56-1.572-1.56h-.233c-.868 0-1.572.698-1.572 1.56v4.54c0 .86.704 1.557 1.572 1.557h.233c.868 0 1.572-.696 1.572-1.558v-4.539zM7.718 10.306c0-.862-.702-1.56-1.57-1.56h-.235c-.866 0-1.57.698-1.57 1.56v6.855c0 .862.704 1.558 1.57 1.558h.235c.868 0 1.57-.696 1.57-1.558v-6.855zM12.063 7.99c0-.861-.704-1.56-1.572-1.56h-.232c-.869 0-1.573.699-1.573 1.56v9.171c0 .862.704 1.558 1.572 1.558h.233c.868 0 1.572-.696 1.572-1.558v-9.17zM16.42 1.97c0-.861-.704-1.56-1.572-1.56h-.233c-.868 0-1.572.699-1.572 1.56v15.191c0 .862.704 1.558 1.572 1.558h.233c.868 0 1.572-.696 1.572-1.558V1.971zM14.036 19.535a.947.947 0 0 0-.95.941c0 .523.426.946.95.946h1.388c.524 0 .95-.423.95-.946a.947.947 0 0 0-.95-.94h-1.388zM9.686 19.535a.947.947 0 0 0-.95.941c0 .523.426.946.95.946h1.375a.95.95 0 0 0 .952-.946.95.95 0 0 0-.952-.94H9.686zM5.348 19.535a.948.948 0 0 0-.953.941c0 .523.427.946.953.946h1.37a.946.946 0 0 0 .948-.946.945.945 0 0 0-.948-.94h-1.37zM1.007 19.535a.947.947 0 0 0-.95.941c0 .523.426.946.95.946H2.37c.524 0 .95-.423.95-.946a.947.947 0 0 0-.95-.94H1.006zM18.468 19.535a.947.947 0 0 0-.95.941c0 .523.427.946.95.946h1.386c.524 0 .95-.423.95-.946a.947.947 0 0 0-.95-.94h-1.386zM20.85 10.306c0-.862-.705-1.56-1.573-1.56h-.234c-.866 0-1.57.698-1.57 1.56v6.855c0 .862.704 1.558 1.57 1.558h.234c.868 0 1.572-.696 1.572-1.558v-6.855z"/>
    </g>
</svg>
