<svg xmlns="http://www.w3.org/2000/svg" width="21" height="20" viewBox="0 0 21 20">
    <g fill="none" fill-rule="evenodd" opacity=".9">
        <path d="M4.088.023h16.44V20H4.088z"/>
        <path fill="#FFF" d="M4.214 17.751c3.93 3.206 9.722 2.987 13.388-.674 3.665-3.66 3.884-9.446.674-13.373a.333.333 0 0 0-.5-.02L4.193 17.253a.329.329 0 0 0 .021.497zM10.784 8.828l6.07-6.065a.331.331 0 0 0-.02-.5 10.007 10.007 0 0 0-12.622 0 .333.333 0 0 0-.02.5l6.072 6.065a.37.37 0 0 0 .52 0zM8.241 9.32l-5.664 5.615a.78.78 0 0 0 .55 1.334.785.785 0 0 0 .55-.227l5.665-5.615a.781.781 0 0 0-1.1-1.107z"/>
        <g fill="#FFF">
            <path d="M1.236 13.767a.778.778 0 0 0 1.105-.011l5.09-5.193a.78.78 0 0 0-1.116-1.092l-5.09 5.191a.78.78 0 0 0 .011 1.105zM.782 11.223a.774.774 0 0 0 .557-.234l4.11-4.19a.78.78 0 0 0-.012-1.105.783.783 0 0 0-1.105.01L.223 9.898a.78.78 0 0 0 .56 1.326z"/>
        </g>
        <path fill="#FFF" d="M.952 7.351a.786.786 0 0 0 .566-.242l2.174-2.273a.78.78 0 1 0-1.13-1.078L.387 6.03a.781.781 0 0 0 .565 1.32z"/>
    </g>
</svg>
