<?xml version="1.0" encoding="UTF-8"?>
<svg width="38px" height="29px" viewBox="0 0 38 29" version="1.1" xmlns="http://www.w3.org/2000/svg" xmlns:xlink="http://www.w3.org/1999/xlink">
    <!-- Generator: Sketch 51.3 (57544) - http://www.bohemiancoding.com/sketch -->
    <title>chart/bar</title>
    <desc>Created with Sketch.</desc>
    <defs></defs>
    <g id="chart/bar" stroke="none" stroke-width="1" fill="none" fill-rule="evenodd">
        <g id="bar-chart-(3)" fill="#5A93EA" fill-rule="nonzero">
            <path d="M37.1405469,27.4375 L35.4270312,27.4375 L35.4270312,2.5575 C35.4270312,1.39945313 34.4848437,0.45734375 33.326875,0.45734375 L29.496875,0.45734375 C28.3388281,0.45734375 27.3967187,1.39953125 27.3967187,2.5575 L27.3967187,27.4375 L23.0457812,27.4375 L23.0457812,13.8300781 C23.0457812,12.6720313 22.1036719,11.7299219 20.945625,11.7299219 L17.115625,11.7299219 C15.9575781,11.7299219 15.0154687,12.6721094 15.0154687,13.8300781 L15.0154687,27.4375 L10.6645312,27.4375 L10.6645312,20.3903125 C10.6645312,19.2322656 9.72234375,18.2901563 8.564375,18.2901563 L4.73429687,18.2901563 C3.57625,18.2901563 2.63414062,19.2323438 2.63414062,20.3903125 L2.63414062,27.4375 L0.828203125,27.4375 C0.39671875,27.4375 0.046953125,27.7872656 0.046953125,28.21875 C0.046953125,28.6502344 0.39671875,29 0.828203125,29 L37.1405469,29 C37.5720312,29 37.9217969,28.6502344 37.9217969,28.21875 C37.9217969,27.7872656 37.5720312,27.4375 37.1405469,27.4375 Z M9.101875,27.4375 L4.1965625,27.4375 L4.1965625,20.3903125 C4.1965625,20.0938281 4.43773437,19.8526563 4.73421875,19.8526563 L8.56421875,19.8526563 C8.86070312,19.8526563 9.101875,20.0938281 9.101875,20.3903125 L9.101875,27.4375 Z M21.4832031,27.4375 L16.5778906,27.4375 L16.5778906,13.8300781 C16.5778906,13.5335938 16.8190625,13.2924219 17.1155469,13.2924219 L20.9455469,13.2924219 C21.2419531,13.2924219 21.4832031,13.5335938 21.4832031,13.8300781 L21.4832031,27.4375 Z M33.8645312,27.4375 L28.9592187,27.4375 L28.9592187,2.5575 C28.9592187,2.26101563 29.2003906,2.01984375 29.496875,2.01984375 L33.326875,2.01984375 C33.6233594,2.01984375 33.8645312,2.26101563 33.8645312,2.5575 L33.8645312,27.4375 Z" id="Shape"></path>
        </g>
    </g>
</svg>