<?xml version="1.0" encoding="UTF-8"?>
<svg width="16px" height="16px" viewBox="0 0 16 16" version="1.1" xmlns="http://www.w3.org/2000/svg" xmlns:xlink="http://www.w3.org/1999/xlink">
    <!-- Generator: Sketch 51.3 (57544) - http://www.bohemiancoding.com/sketch -->
    <title>calendar-page</title>
    <desc>Created with Sketch.</desc>
    <defs></defs>
    <g id="Symbols" stroke="none" stroke-width="1" fill="none" fill-rule="evenodd">
        <g id="Icon/date" fill="#5A93EA">
            <g id="calendar-page">
                <path d="M4,12 C4,12.4424 3.6424,12.8 3.2,12.8 C2.758,12.8 2.4,12.4424 2.4,12 C2.4,11.558 2.758,11.2 3.2,11.2 C3.6424,11.2 4,11.558 4,12 Z" id="Fill-1"></path>
                <path d="M7.2,12 C7.2,12.4424 6.8408,12.8 6.4,12.8 C5.958,12.8 5.6,12.4424 5.6,12 C5.6,11.558 5.958,11.2 6.4,11.2 C6.8408,11.2 7.2,11.558 7.2,12 Z" id="Fill-2"></path>
                <path d="M10.4,12 C10.4,12.4424 10.0424,12.8 9.6,12.8 C9.158,12.8 8.8,12.4424 8.8,12 C8.8,11.558 9.158,11.2 9.6,11.2 C10.0424,11.2 10.4,11.558 10.4,12 Z" id="Fill-3"></path>
                <path d="M12.8,12 C12.8,12.4424 12.4424,12.8 12,12.8 C11.558,12.8 11.2,12.4424 11.2,12 C11.2,11.558 11.558,11.2 12,11.2 C12.4424,11.2 12.8,11.558 12.8,12 Z" id="Fill-4"></path>
                <path d="M10.4,9.6 C10.4,10.0424 10.0424,10.4 9.6,10.4 C9.158,10.4 8.8,10.0424 8.8,9.6 C8.8,9.158 9.158,8.8 9.6,8.8 C10.0424,8.8 10.4,9.158 10.4,9.6 Z" id="Fill-5"></path>
                <path d="M13.5143853,1.54436428 L13.4160279,1.54436428 C13.4160279,0.690716923 12.7020408,0 11.8231956,0 C10.9427576,0 10.2303634,0.690716923 10.2303634,1.54436428 L6.03524141,1.54436428 C6.03524141,0.690716923 5.32284719,0 4.44240916,0 C3.56356396,0 2.8495769,0.690716923 2.8495769,1.54436428 L2.4840219,1.54436428 C1.11060229,1.54436428 0,2.624261 0,3.95280037 L0,13.5900195 C0,14.9204894 1.11060229,16 2.4840219,16 L13.5143853,16 C14.886212,16 16,14.9204894 16,13.5900195 L16,3.95280037 C16,2.624261 14.886212,1.54436428 13.5143853,1.54436428 Z M14.3323046,13.5463913 C14.3323046,13.9429068 13.9994027,14.2672233 13.590443,14.2672233 L2.5134893,14.2672233 C2.10452962,14.2672233 1.77003484,13.9429068 1.77003484,13.5463913 L1.77003484,7.32530586 L14.3323046,7.32530586 L14.3323046,13.5463913 Z" id="Fill-6"></path>
                <path d="M12.8,9.6 C12.8,10.0424 12.4424,10.4 12,10.4 C11.558,10.4 11.2,10.0424 11.2,9.6 C11.2,9.158 11.558,8.8 12,8.8 C12.4424,8.8 12.8,9.158 12.8,9.6 Z" id="Fill-7"></path>
            </g>
        </g>
    </g>
</svg>