<svg xmlns="http://www.w3.org/2000/svg" width="13" height="18" viewBox="0 0 13 18">
    <g fill="#B1B1B1" fill-rule="evenodd">
        <path d="M4.792 1.806h3.01v-.632h-3.01v.632zm7.236 0H8.932V.587A.576.576 0 0 0 8.367 0h-4.14a.576.576 0 0 0-.566.587v1.219H.565A.576.576 0 0 0 0 2.393v1.805c0 .324.253.587.565.587h11.463a.576.576 0 0 0 .565-.587V2.393a.576.576 0 0 0-.565-.587zM3.458 8.346c0-.324.253-.587.565-.587.312 0 .565.263.565.587v7.267a.576.576 0 0 1-.565.587.576.576 0 0 1-.565-.587V8.346zm2.273 0c0-.324.253-.587.566-.587.312 0 .565.263.565.587v7.267a.576.576 0 0 1-.565.587.576.576 0 0 1-.566-.587V8.346zm2.274 0c0-.324.253-.587.565-.587.312 0 .565.263.565.587v7.267a.576.576 0 0 1-.565.587.576.576 0 0 1-.565-.587V8.346zm-6.751 9.092a.575.575 0 0 0 .564.562h8.957a.575.575 0 0 0 .565-.562l.468-11.48H.785l.469 11.48z"/>
    </g>
</svg>
