<svg xmlns="http://www.w3.org/2000/svg" width="14" height="14" viewBox="0 0 14 14">
    <g fill="#5A93EA" fill-rule="nonzero">
        <path d="M7.663 8.771a.213.213 0 0 0-.223.05l-2.754 2.754a1.608 1.608 0 0 1-1.145.474 1.622 1.622 0 0 1-1.145-2.764l2.753-2.753a.214.214 0 0 0-.13-.365l-1.923-.19a.21.21 0 0 0-.173.06L1.036 7.926A3.518 3.518 0 0 0 0 10.43c0 .947.368 1.837 1.036 2.505A3.518 3.518 0 0 0 3.54 13.97c.947 0 1.836-.368 2.504-1.036l1.888-1.888a.214.214 0 0 0 .062-.172l-.191-1.923a.214.214 0 0 0-.141-.18zM12.935 1.036A3.518 3.518 0 0 0 10.43 0c-.947 0-1.837.368-2.505 1.036L6.038 2.923a.214.214 0 0 0-.062.173l.19 1.923a.214.214 0 0 0 .366.13l2.753-2.754a1.609 1.609 0 0 1 1.145-.473c.433 0 .84.168 1.145.473a1.621 1.621 0 0 1 0 2.29L8.822 7.44a.215.215 0 0 0 .13.365l1.923.19a.215.215 0 0 0 .173-.061l1.887-1.887a3.547 3.547 0 0 0 0-5.01zM1.263 5.385h.004l2.313-.04a.214.214 0 0 0 .056-.42l-2.221-.648a.213.213 0 0 0-.272.177l-.092.688a.214.214 0 0 0 .212.243zM4.925 3.636a.214.214 0 0 0 .42-.056l.04-2.313a.214.214 0 0 0-.243-.216l-.688.092a.214.214 0 0 0-.177.273l.648 2.22zM12.704 8.585l-2.313.04a.214.214 0 0 0-.057.42l2.222.649a.214.214 0 0 0 .272-.177l.092-.689a.214.214 0 0 0-.052-.17.211.211 0 0 0-.164-.073zM9.045 10.335a.215.215 0 0 0-.42.056l-.04 2.313a.214.214 0 0 0 .243.216l.688-.092a.215.215 0 0 0 .178-.273l-.649-2.22z"/>
    </g>
</svg>
