<svg xmlns="http://www.w3.org/2000/svg" width="22" height="22" viewBox="0 0 22 22">
    <g fill="none" fill-rule="evenodd">
        <path fill="#888" d="M10.259 7.263a1.82 1.82 0 0 0-.508.288c-.184.159-.276.395-.276.711 0 .303.086.531.258.686.126.115.302.22.526.319V7.263zM12.505 12.31c0-.335-.104-.59-.314-.774-.17-.146-.408-.274-.705-.385v2.381c.29-.086.523-.22.695-.408.216-.232.324-.506.324-.815z"/>
        <path fill="#5A93EA" d="M10.872 21.501c6.008 0 10.872-4.76 10.872-10.633 0-5.865-4.866-10.619-10.872-10.619C4.871.249 0 5.003 0 10.868c0 5.873 4.87 10.633 10.872 10.633zm-2.864-9.7a.746.746 0 0 1 .552-.22c.176 0 .323.039.446.119a.62.62 0 0 1 .251.34c.106.313.198.553.276.72.078.167.198.319.356.456.1.088.227.156.37.216v-2.644a6.748 6.748 0 0 1-1.054-.399 2.207 2.207 0 0 1-.86-.742c-.217-.322-.327-.734-.327-1.24 0-.658.214-1.197.644-1.619.377-.373.917-.6 1.595-.696v-.718c0-.33.275-.6.615-.6.338 0 .614.27.614.6v.715c.321.046.613.115.857.216.298.128.56.319.783.575.176.195.312.396.408.603.096.207.144.397.144.569 0 .191-.07.355-.214.495a.715.715 0 0 1-.52.21c-.383 0-.631-.204-.745-.608-.108-.4-.35-.681-.713-.857v2.351c.381.108.697.205.939.295.288.107.546.262.773.465.242.211.43.463.562.756.13.293.196.611.196.961 0 .436-.104.844-.316 1.225a2.453 2.453 0 0 1-.923.933 3.262 3.262 0 0 1-1.231.4v1.561c0 .332-.276.6-.614.6a.605.605 0 0 1-.613-.6V14.67a3.596 3.596 0 0 1-.94-.267 2.834 2.834 0 0 1-.857-.6c-.23-.24-.4-.488-.508-.746a1.932 1.932 0 0 1-.165-.76c0-.183.073-.349.219-.495z"/>
    </g>
</svg>
