<svg xmlns="http://www.w3.org/2000/svg" width="21" height="22" viewBox="0 0 21 22">
    <g fill="#5A93EA" fill-rule="nonzero">
        <path d="M15.308 10.028a.666.666 0 0 0-.608-.403h-2.673V.687c0-.379-.3-.687-.668-.687H8.686a.678.678 0 0 0-.668.688v8.937H5.345c-.261 0-.5.158-.608.403a.701.701 0 0 0 .106.737l4.677 5.5c.127.15.31.235.503.235a.663.663 0 0 0 .502-.235l4.677-5.5a.701.701 0 0 0 .106-.737z"/>
        <path d="M17.373 15.125v4.125h-14.7v-4.125H0v5.5C0 21.385.599 22 1.336 22H18.71c.74 0 1.336-.615 1.336-1.375v-5.5h-2.672z"/>
    </g>
</svg>
