<?xml version="1.0" encoding="UTF-8"?>
<svg width="22px" height="22px" viewBox="0 0 22 22" version="1.1" xmlns="http://www.w3.org/2000/svg" xmlns:xlink="http://www.w3.org/1999/xlink">
    <!-- Generator: Sketch 51.3 (57544) - http://www.bohemiancoding.com/sketch -->
    <title>Combined Shape</title>
    <desc>Created with Sketch.</desc>
    <defs></defs>
    <g id="Symbols" stroke="none" stroke-width="1" fill="none" fill-rule="evenodd">
        <g id="Top-nav" transform="translate(-848.000000, -24.000000)" fill="#EF4564">
            <g id="Group-15" transform="translate(848.000000, 24.000000)">
                <g id="download-symbol">
                    <path d="M20.5032483,5.4725877 C21.4854305,7.15601367 21.9765968,8.99469248 21.9765467,10.9883235 C21.9765467,12.981754 21.4854305,14.8203326 20.5030478,16.503959 C19.5205148,18.187385 18.1876856,19.520615 16.5042096,20.5029476 C14.8206333,21.4854305 12.9819544,21.9766469 10.9884237,21.9766469 C8.99489294,21.9766469 7.15641458,21.4854305 5.47273804,20.5029476 C3.78916173,19.5202642 2.45628246,18.187385 1.47369932,16.503959 C0.491316629,14.8201822 -1.0658141e-14,12.9818542 -1.0658141e-14,10.9883235 C-1.0658141e-14,8.99489294 0.491166287,7.15626424 1.47384966,5.4725877 C2.45648292,3.78901139 3.78936219,2.45613212 5.4729385,1.47369932 C7.15641458,0.491166287 8.99504328,-1.77635684e-15 10.9886241,-1.77635684e-15 C12.9824055,-1.77635684e-15 14.8204829,0.491166287 16.5042597,1.47369932 C18.1877358,2.45628246 19.520615,3.78916173 20.5032483,5.4725877 Z M15.5670296,10.9883235 L12.8201367,10.9883235 L12.8201367,5.95167654 C12.8201367,5.81807289 12.7769385,5.7084738 12.6911936,5.62257859 C12.6057995,5.53693394 12.496,5.4938861 12.3625968,5.4938861 L9.61520273,5.4938861 C9.48169932,5.4938861 9.37194989,5.53693394 9.28610478,5.62257859 C9.20020957,5.70852392 9.15731207,5.81807289 9.15731207,5.95167654 L9.15731207,10.988123 L6.41011845,10.988123 C6.20034169,10.988123 6.0572164,11.08359 5.98084282,11.2742232 C5.90446925,11.4556856 5.93804556,11.6223645 6.0810205,11.7751617 L10.6595763,16.3536173 C10.764615,16.4393622 10.8742141,16.4822597 10.9886743,16.4822597 C11.1029841,16.4822597 11.2127335,16.4393622 11.3178724,16.3536173 L15.8820957,11.7895945 C15.9774123,11.6751845 16.0249704,11.5602733 16.0249704,11.4462141 C16.0249704,11.3128109 15.982123,11.2030114 15.8960273,11.1169658 C15.8103827,11.0311708 15.7006333,10.9883235 15.5670296,10.9883235 Z" id="Combined-Shape"></path>
                </g>
            </g>
        </g>
    </g>
</svg>