<?xml version="1.0" encoding="UTF-8"?>
<svg width="24px" height="24px" viewBox="0 0 24 24" version="1.1" xmlns="http://www.w3.org/2000/svg" xmlns:xlink="http://www.w3.org/1999/xlink">
    <!-- Generator: Sketch 51.3 (57544) - http://www.bohemiancoding.com/sketch -->
    <title>analytics (3)</title>
    <desc>Created with Sketch.</desc>
    <defs></defs>
    <g id="Symbols" stroke="none" stroke-width="1" fill="none" fill-rule="evenodd">
        <g id="bar_chart" transform="translate(-58.000000, 0.000000)" fill="#5A93EA" fill-rule="nonzero">
            <g id="analytics-(3)" transform="translate(58.000000, 0.000000)">
                <path d="M23.4541754,22.9551813 L0.499040936,22.9551813 C0.223578947,22.9551813 0,23.1787135 0,23.4541754 C0,23.7296374 0.223578947,23.9532164 0.499040936,23.9532164 L23.4542222,23.9532164 C23.7296842,23.9532164 23.9532632,23.7296374 23.9532632,23.4541754 C23.9532164,23.1787135 23.7296374,22.9551813 23.4541754,22.9551813 Z" id="Shape"></path>
                <path d="M4.49122807,16.9668772 L1.49707602,16.9668772 C1.22161404,16.9668772 0.998035088,17.1904561 0.998035088,17.4659181 L0.998035088,23.4542222 C0.998035088,23.7296374 1.22161404,23.9532164 1.49707602,23.9532164 L4.49122807,23.9532164 C4.76669006,23.9532164 4.99026901,23.7296374 4.99026901,23.4541754 L4.99026901,17.4658713 C4.99026901,17.1904094 4.76669006,16.9668772 4.49122807,16.9668772 Z M3.99218713,22.9551813 L1.99611696,22.9551813 L1.99611696,17.9649123 L3.99223392,17.9649123 L3.99223392,22.9551813 L3.99218713,22.9551813 Z" id="Shape"></path>
                <path d="M10.4795322,11.9766082 L7.48538012,11.9766082 C7.20991813,11.9766082 6.98633918,12.2001871 6.98633918,12.4756491 L6.98633918,23.4542222 C6.98633918,23.7296842 7.20991813,23.9532632 7.48538012,23.9532632 L10.4795322,23.9532632 C10.7549942,23.9532632 10.9785731,23.7296842 10.9785731,23.4542222 L10.9785731,12.4756491 C10.9785731,12.2001871 10.7549942,11.9766082 10.4795322,11.9766082 Z M9.98049123,22.9551813 L7.98437427,22.9551813 L7.98437427,12.9746433 L9.98049123,12.9746433 L9.98049123,22.9551813 Z" id="Shape"></path>
                <path d="M16.4678363,13.9727251 L13.4736842,13.9727251 C13.1982222,13.9727251 12.9746433,14.1963041 12.9746433,14.4717661 L12.9746433,23.4542222 C12.9746433,23.7296842 13.1982222,23.9532632 13.4736842,23.9532632 L16.4678363,23.9532632 C16.7432982,23.9532632 16.9668772,23.7296842 16.9668772,23.4542222 L16.9668772,14.4717661 C16.9668772,14.1962573 16.7432982,13.9727251 16.4678363,13.9727251 Z M15.9687953,22.9551813 L13.9726784,22.9551813 L13.9726784,14.9707602 L15.9687953,14.9707602 L15.9687953,22.9551813 Z" id="Shape"></path>
                <path d="M22.4561404,7.98442105 L19.4619883,7.98442105 C19.1865263,7.98442105 18.9629474,8.208 18.9629474,8.48346199 L18.9629474,23.4542222 C18.9629474,23.7296842 19.1865263,23.9532632 19.4619883,23.9532632 L22.4561404,23.9532632 C22.7316023,23.9532632 22.9551813,23.7296842 22.9551813,23.4542222 L22.9551813,8.48346199 C22.9551813,8.20795322 22.7316023,7.98442105 22.4561404,7.98442105 Z M21.9570994,22.9551813 L19.9609825,22.9551813 L19.9609825,8.98245614 L21.9570994,8.98245614 L21.9570994,22.9551813 Z" id="Shape"></path>
                <path d="M2.99415205,8.98245614 C1.89328655,8.98245614 0.998035088,9.8777076 0.998035088,10.9785731 C0.998035088,12.0794386 1.89328655,12.9746901 2.99415205,12.9746901 C4.09501754,12.9746901 4.99026901,12.0794386 4.99026901,10.9785731 C4.99026901,9.8777076 4.09501754,8.98245614 2.99415205,8.98245614 Z M2.99415205,11.9766082 C2.44322807,11.9766082 1.99611696,11.5284678 1.99611696,10.9785731 C1.99611696,10.4286316 2.44322807,9.98053801 2.99415205,9.98053801 C3.54507602,9.98053801 3.99218713,10.4286784 3.99218713,10.9785731 C3.99218713,11.5284678 3.54507602,11.9766082 2.99415205,11.9766082 Z" id="Shape"></path>
                <path d="M8.98245614,3.99218713 C7.88159064,3.99218713 6.98633918,4.8874386 6.98633918,5.98830409 C6.98633918,7.08916959 7.88159064,7.98442105 8.98245614,7.98442105 C10.0833216,7.98442105 10.9785731,7.08916959 10.9785731,5.98830409 C10.9785731,4.8874386 10.0833216,3.99218713 8.98245614,3.99218713 Z M8.98245614,6.98633918 C8.43153216,6.98633918 7.98442105,6.53819883 7.98442105,5.98830409 C7.98442105,5.43836257 8.43153216,4.99026901 8.98245614,4.99026901 C9.53338012,4.99026901 9.98049123,5.43840936 9.98049123,5.98830409 C9.98049123,6.53824561 9.53338012,6.98633918 8.98245614,6.98633918 Z" id="Shape"></path>
                <path d="M14.9707602,5.98830409 C13.8698947,5.98830409 12.9746433,6.88355556 12.9746433,7.98442105 C12.9746433,9.08528655 13.8698947,9.98053801 14.9707602,9.98053801 C16.0716257,9.98053801 16.9668772,9.08528655 16.9668772,7.98442105 C16.9668772,6.88355556 16.0716257,5.98830409 14.9707602,5.98830409 Z M14.9707602,8.98245614 C14.4198363,8.98245614 13.9727251,8.53431579 13.9727251,7.98442105 C13.9727251,7.43447953 14.4198363,6.98638596 14.9707602,6.98638596 C15.5216842,6.98638596 15.9687953,7.43452632 15.9687953,7.98442105 C15.9687953,8.53431579 15.5216842,8.98245614 14.9707602,8.98245614 Z" id="Shape"></path>
                <path d="M20.9590643,0 C19.8581988,0 18.9629474,0.895251462 18.9629474,1.99611696 C18.9629474,3.09698246 19.8581988,3.99223392 20.9590643,3.99223392 C22.0599298,3.99223392 22.9551813,3.09698246 22.9551813,1.99611696 C22.9551813,0.895251462 22.0599298,0 20.9590643,0 Z M20.9590643,2.99415205 C20.4081404,2.99415205 19.9610292,2.5460117 19.9610292,1.99611696 C19.9610292,1.44617544 20.4081404,0.998081871 20.9590643,0.998081871 C21.5099883,0.998081871 21.9570994,1.44622222 21.9570994,1.99611696 C21.9570994,2.5460117 21.5099883,2.99415205 20.9590643,2.99415205 Z" id="Shape"></path>
                <path d="M20.2544561,2.70072515 C20.0598363,2.50610526 19.7434386,2.50610526 19.5488187,2.70072515 L15.6763977,6.5731462 C15.4817778,6.76776608 15.4817778,7.08416374 15.6763977,7.27878363 C15.7742222,7.37557895 15.9019415,7.42451462 16.0297076,7.42451462 C16.1564444,7.42451462 16.2842105,7.37660819 16.3820351,7.27878363 L20.2544561,3.40636257 C20.449076,3.21174269 20.449076,2.89534503 20.2544561,2.70072515 Z" id="Shape"></path>
                <path d="M13.764117,6.83265497 L10.5583626,5.91845614 C10.2898713,5.84060819 10.0174035,5.99630409 9.94254971,6.26180117 C9.86671345,6.52729825 10.0203977,6.80276023 10.2848655,6.87859649 L13.4906199,7.79279532 C13.5365146,7.80575439 13.5824561,7.81174269 13.6273684,7.81174269 C13.8449591,7.81174269 14.044538,7.66900585 14.1074152,7.44945029 C14.1832982,7.18498246 14.029614,6.90849123 13.764117,6.83265497 Z" id="Shape"></path>
                <path d="M8.20397661,6.61010526 C8.03232749,6.39452632 7.71892398,6.35957895 7.50334503,6.53024561 L3.74067836,9.53038596 C3.52509942,9.70306433 3.48916959,10.0164211 3.66184795,10.232 C3.76065497,10.3557427 3.90638596,10.4196491 4.05207018,10.4196491 C4.16084211,10.4196491 4.27064327,10.3837193 4.36247953,10.3118596 L8.1251462,7.3117193 C8.34072515,7.13904094 8.37665497,6.82568421 8.20397661,6.61010526 Z" id="Shape"></path>
            </g>
        </g>
    </g>
</svg>