<svg xmlns="http://www.w3.org/2000/svg" width="21" height="22" viewBox="0 0 21 22">
    <g fill="#5A93EA" fill-rule="evenodd">
        <path d="M5.714 16.167a1.023 1.023 0 1 1-1.024-1.023c.566 0 1.024.458 1.024 1.023zM9.472 16.167a1.024 1.024 0 1 1-2.049-.002 1.024 1.024 0 0 1 2.049.002zM13.159 16.167c0 .566-.458 1.023-1.025 1.023a1.023 1.023 0 1 1 0-2.046c.567 0 1.025.458 1.025 1.023zM17.256 16.167a1.023 1.023 0 1 1-1.024-1.023c.566 0 1.024.458 1.024 1.023zM13.159 12.687c0 .566-.458 1.024-1.025 1.024a1.023 1.023 0 1 1 0-2.047c.567 0 1.025.458 1.025 1.023z"/>
        <path d="M17.383 2.333h-.127A2.048 2.048 0 0 0 15.208.287a2.046 2.046 0 0 0-2.05 2.046H7.764A2.046 2.046 0 0 0 5.714.287c-1.13 0-2.049.915-2.049 2.046h-.47A3.193 3.193 0 0 0 0 5.525v12.77a3.194 3.194 0 0 0 3.195 3.194h14.188a3.197 3.197 0 0 0 3.197-3.194V5.525a3.196 3.196 0 0 0-3.197-3.192zm1.052 15.904a.957.957 0 0 1-.954.956H3.233a.958.958 0 0 1-.956-.956V9.994h16.158v8.243z"/>
        <path d="M17.256 12.687a1.023 1.023 0 1 1-1.024-1.023c.566 0 1.024.458 1.024 1.023z"/>
    </g>
</svg>
