<svg xmlns="http://www.w3.org/2000/svg" width="40" height="40" viewBox="0 0 40 40">
    <path fill="#475993" fill-rule="nonzero" d="M34.61 0H5.39A5.39 5.39 0 0 0 0 5.39v29.22A5.39 5.39 0 0 0 5.39 40h14.411l.025-14.294h-3.714a.876.876 0 0 1-.876-.873l-.018-4.607a.876.876 0 0 1 .876-.88h3.707v-4.452c0-5.166 3.156-7.98 7.764-7.98h3.782c.484 0 .877.393.877.877v3.885a.876.876 0 0 1-.876.876l-2.321.001c-2.506 0-2.992 1.191-2.992 2.939v3.854h5.508c.525 0 .932.458.87.98l-.546 4.607a.876.876 0 0 1-.87.773H26.06L26.035 40h8.575A5.39 5.39 0 0 0 40 34.61V5.39A5.39 5.39 0 0 0 34.61 0z"/>
</svg>
