<svg xmlns="http://www.w3.org/2000/svg" width="20" height="20" viewBox="0 0 20 20">
    <g fill="none" fill-rule="evenodd">
        <path d="M0 .089h19.585v19.424H0z"/>
        <path fill="#FFF" d="M19.34 9.566a.973.973 0 0 0-.077-1.37L10.511.351a1.075 1.075 0 0 0-1.424.015L.305 8.616A.965.965 0 0 0 .262 9.98l.22.235c.366.39.956.436 1.318.105l.657-.602v8.815c0 .54.428.979.956.979h3.423a.967.967 0 0 0 .956-.98v-6.168h4.366v6.169c-.008.54.37.977.898.977h3.627a.966.966 0 0 0 .957-.977V9.842l.405.364c.223.2.692.04 1.047-.36l.248-.28z"/>
    </g>
</svg>
