<svg xmlns="http://www.w3.org/2000/svg" width="36" height="37" viewBox="0 0 36 37">
    <g fill="none" fill-rule="nonzero">
        <path fill="#ECEFF1" d="M10 36.5h16c5.523 0 10-4.477 10-10v-16c0-5.523-4.477-10-10-10H10C4.477.5 0 4.977 0 10.5v16c0 5.523 4.477 10 10 10z"/>
        <path fill="#FFC107" d="M7.547 13.234a.764.764 0 0 1-1.527 0c0-.418.343-.761.761-.761.422 0 .766.343.766.761z"/>
        <path fill="#FF5722" d="M9.98 16.309l1.446-.61c.68-1.219 1.836-1.926 3.332-1.926.34 0 .66.043.96.114l1.376-.578a5.195 5.195 0 0 0-2.336-.528c-2.39 0-4.094 1.313-4.778 3.528zM7.297 17.445v-1.57H6.273v2.004z"/>
        <path fill="#F44336" d="M7.297 20.234v-2.789l-1.024.434v2.785zM10.742 18.648c0-1.168.246-2.164.684-2.949l-1.446.61c-.21.699-.332 1.476-.332 2.34 0 .199.028.382.04.574l1.062-.45c0-.043-.008-.082-.008-.125zM24.422 13c-.281.086-.54.195-.774.328l.774-.328zM17.094 13.309l-1.375.578c1.027.234 1.828.863 2.351 1.797l1.024-.434a4.506 4.506 0 0 0-2-1.941z"/>
        <path fill="#E91E63" d="M7.297 23.02v-2.786l-1.024.43v2.79zM24.422 13l-.774.328c-.984.547-1.578 1.461-1.578 2.578 0 .305.047.57.117.824l1.032-.433a1.62 1.62 0 0 1-.055-.422c0-1.227 1.117-2.117 2.734-2.117.793 0 1.465.215 1.957.582l1.047-.445c-.691-.684-1.734-1.114-2.972-1.114-.547 0-1.055.078-1.508.219zM10.75 18.773l-1.063.45c.06.96.262 1.812.598 2.535l1.004-.422c-.336-.715-.523-1.574-.539-2.563zM19.094 15.25l-1.024.434c.38.68.602 1.53.657 2.507l1.062-.445c-.094-.95-.32-1.793-.695-2.496z"/>
        <path fill="#9C27B0" d="M19.61 20.61c.144-.602.242-1.25.242-1.962 0-.316-.036-.609-.063-.906l-1.062.45c.007.152.03.296.03.456 0 .97-.179 1.809-.48 2.524l1.332-.563zM11.29 21.336l-1.005.422c.41.879 1.008 1.566 1.777 2.039l1.258-.531c-.898-.34-1.593-1-2.03-1.93zM7.297 23.02l-1.024.433v.836h1.024zM23.219 16.297l-1.032.433c.247.868.915 1.473 2.13 1.891l1.601-.676-.34-.086c-1.457-.363-2.172-.832-2.36-1.562zM28.719 15.773h1.078c-.05-.73-.379-1.375-.895-1.878l-1.047.44c.473.352.782.849.864 1.438z"/>
        <path fill="#3F51B5" d="M19.61 20.61l-1.333.562c-.629 1.476-1.851 2.36-3.52 2.36-.527 0-1-.102-1.437-.266l-1.258.53c.75.458 1.649.727 2.696.727 2.543 0 4.262-1.484 4.851-3.914zM22.828 21.36H21.75c.027.367.129.703.266 1.019l.988-.418a1.948 1.948 0 0 1-.176-.602zM26.695 18.14l-.78-.195-1.599.676c.235.082.489.156.762.223l1.29.328c.714.176 1.257.398 1.66.672l1.202-.512c-.527-.516-1.351-.898-2.535-1.191z"/>
        <path fill="#03A9F4" d="M23.004 21.965l-.988.418c.375.867 1.136 1.527 2.164 1.87l1.691-.714c-1.379-.031-2.457-.644-2.867-1.574zM29.914 21.832c.035-.191.063-.39.063-.598 0-.785-.235-1.402-.747-1.902l-1.203.512c.578.386.856.883.856 1.508 0 .394-.13.75-.348 1.062l1.38-.582z"/>
        <path fill="#009688" d="M29.914 21.832l-1.379.582c-.473.684-1.394 1.133-2.55 1.133-.04 0-.075-.004-.114-.008l-1.691.715c.515.172 1.086.27 1.71.27 2.208 0 3.723-1.06 4.024-2.692z"/>
    </g>
</svg>
