<svg xmlns="http://www.w3.org/2000/svg" width="22" height="22" viewBox="0 0 22 22">
    <path fill="#5A93EA" fill-rule="nonzero" d="M10.828 0C4.848 0 0 4.848 0 10.828c0 5.98 4.848 10.828 10.828 10.828 5.98 0 10.828-4.849 10.828-10.828C21.656 4.848 16.807 0 10.828 0zm2.254 16.781a35.72 35.72 0 0 1-1.334.503 3.519 3.519 0 0 1-1.157.173c-.675 0-1.2-.165-1.574-.494a1.594 1.594 0 0 1-.56-1.253c0-.197.014-.399.041-.604.029-.206.074-.437.135-.696l.698-2.464c.061-.236.114-.461.157-.67.042-.21.062-.404.062-.58 0-.314-.065-.534-.195-.658-.13-.123-.377-.184-.745-.184-.18 0-.365.027-.554.083-.188.057-.351.11-.485.161l.184-.759c.456-.186.894-.346 1.31-.478.418-.133.812-.2 1.183-.2.67 0 1.187.164 1.551.486.362.324.545.745.545 1.262 0 .107-.013.296-.038.565-.024.27-.071.517-.14.744l-.693 2.456a6.95 6.95 0 0 0-.153.675 3.567 3.567 0 0 0-.067.574c0 .326.072.549.22.667.144.119.398.178.757.178.17 0 .36-.03.574-.089.213-.058.367-.11.464-.156l-.186.758zm-.123-9.971c-.324.3-.713.45-1.169.45-.454 0-.847-.15-1.173-.45a1.44 1.44 0 0 1-.489-1.094c0-.426.165-.793.489-1.096a1.661 1.661 0 0 1 1.173-.456c.456 0 .846.152 1.169.456.324.303.486.67.486 1.096 0 .428-.162.793-.486 1.094z"/>
</svg>
