<?xml version="1.0" encoding="UTF-8"?>
<svg width="14px" height="14px" viewBox="0 0 14 14" version="1.1" xmlns="http://www.w3.org/2000/svg" xmlns:xlink="http://www.w3.org/1999/xlink">
    <!-- Generator: Sketch 51.3 (57544) - http://www.bohemiancoding.com/sketch -->
    <title>Icon/info</title>
    <desc>Created with Sketch.</desc>
    <defs></defs>
    <g id="Icon/info" stroke="none" stroke-width="1" fill="none" fill-rule="evenodd">
        <path d="M7,3.5 C6.517,3.5 6.125,3.892 6.125,4.375 C6.125,4.858 6.517,5.25 7,5.25 C7.483,5.25 7.875,4.85843464 7.875,4.375 C7.875,3.89156536 7.48343464,3.5 7,3.5 Z M7,6.125 C6.517,6.125 6.125,6.51656536 6.125,7 L6.125,9.625 C6.125,10.108 6.517,10.5 7,10.5 C7.483,10.5 7.875,10.108 7.875,9.625 L7.875,7 C7.875,6.517 7.48343464,6.125 7,6.125 Z M7,0 C3.14036928,0 0,3.14036928 0,7 C0,10.8596307 3.14036928,14 7,14 C10.8596307,14 14,10.8596307 14,7 C14,3.14036928 10.8596307,0 7,0 Z M7,12.6875 C3.86356536,12.6875 1.3125,10.136 1.3125,7 C1.3125,3.864 3.86356536,1.3125 7,1.3125 C10.136,1.3125 12.6875,3.864 12.6875,7 C12.6875,10.136 10.136,12.6875 7,12.6875 Z" id="Shape" fill="#5A93EA" fill-rule="nonzero"></path>
    </g>
</svg>