<?xml version="1.0" encoding="UTF-8"?>
<svg width="40px" height="40px" viewBox="0 0 40 40" version="1.1" xmlns="http://www.w3.org/2000/svg" xmlns:xlink="http://www.w3.org/1999/xlink">
    <!-- Generator: Sketch 51.3 (57544) - http://www.bohemiancoding.com/sketch -->
    <title>chart/line</title>
    <desc>Created with Sketch.</desc>
    <defs></defs>
    <g id="chart/line" stroke="none" stroke-width="1" fill="none" fill-rule="evenodd">
        <g id="charts" fill="#5A93EA" fill-rule="nonzero">
            <path d="M2.66666667,33.3333333 L2.66666667,30.9266667 L8.76,24.22 C9.51258333,24.845 10.61075,24.8194167 11.3333333,24.16 L16.0466667,27.6933333 C16.28125,28.7726667 17.3464167,29.4575833 18.42575,29.223 C19.3215833,29.0283333 19.9703333,28.2495833 20,27.3333333 C20.00025,27.21 19.9868333,27.087 19.96,26.9666667 L25.1866667,21.16 C25.4434167,21.2715833 25.72,21.3305 26,21.3333333 C26.4720833,21.33025 26.9279167,21.1601667 27.2866667,20.8533333 L32.1733333,25.1933333 C32.061,25.4475833 32.0020833,25.7220833 32,26 C32,27.1045833 32.8954167,28 34,28 C35.1045833,28 36,27.1045833 36,26 C36,24.8954167 35.1045833,24 34,24 C33.6840833,24.0029167 33.3734167,24.0805833 33.0933333,24.2266667 L28,19.6733333 C28.0098333,19.56025 28.0098333,19.4464167 28,19.3333333 C28,18.22875 27.1045833,17.3333333 26,17.3333333 C24.8954167,17.3333333 24,18.22875 24,19.3333333 C24.0024167,19.6471667 24.0801667,19.9558333 24.2266667,20.2333333 L19.24,25.7733333 C18.8880833,25.491 18.4511667,25.3359167 18,25.3333333 C17.3236667,25.33525 16.6941667,25.6788333 16.3266667,26.2466667 L12,22.9733333 C12.0101667,22.8713333 12.0101667,22.7686667 12,22.6666667 C12,21.5620833 11.1045833,20.6666667 10,20.6666667 C8.89541667,20.6666667 8,21.5620833 8,22.6666667 C7.99975,22.79 8.01316667,22.913 8.04,23.0333333 L2.66666667,28.94 L2.66666667,21.6066667 L9.1,15.76 C9.3775,15.9083333 9.6855,15.9905 10,16 C11.1045833,16 12,15.1045833 12,14 C12.00025,13.8745 11.9868333,13.7493333 11.96,13.6266667 L16.9933333,8 C17.1064167,8.00983333 17.22025,8.00983333 17.3333333,8 C17.8701667,7.99958333 18.38425,7.78333333 18.76,7.4 L24.0933333,9.17333333 C24.404,10.2333333 25.5150833,10.84075 26.5750833,10.5300833 C27.50775,10.25675 28.1089167,9.35241667 28,8.38666667 L32.6666667,5.46666667 C33.49,6.203 34.7544167,6.13241667 35.4906667,5.309 C36.2269167,4.48558333 36.1564167,3.22125 35.333,2.485 C34.5095833,1.74875 33.24525,1.81925 32.509,2.64266667 C32.1755833,3.0155 31.9939167,3.49983333 32,4 C31.9935,4.09325 31.9935,4.18675 32,4.28 L27.3333333,7.2 C26.5190833,6.45366667 25.2539167,6.50875 24.5075833,7.323 C24.3753333,7.46733333 24.2649167,7.63025 24.18,7.80666667 L19.3333333,6.18 C19.3365833,6.12008333 19.3365833,6.06 19.3333333,6 C19.3405833,4.89541667 18.4510833,3.99416667 17.3465,3.98691667 C16.2419167,3.97966667 15.3406667,4.86916667 15.3334167,5.97375 C15.33025,6.45483333 15.5006667,6.921 15.8133333,7.28666667 L11.2333333,12.44 C10.8848333,12.15625 10.4494167,12.0009167 10,12 C8.89541667,12 8,12.8954167 8,14 C8.00041667,14.2809167 8.06183333,14.5584167 8.18,14.8133333 L2.66666667,19.8266667 L2.66666667,0 L1.33333333,0 L1.33333333,1.33333333 L0,1.33333333 L0,2.66666667 L1.33333333,2.66666667 L1.33333333,9.33333333 L0,9.33333333 L0,10.6666667 L1.33333333,10.6666667 L1.33333333,17.3333333 L0,17.3333333 L0,18.6666667 L1.33333333,18.6666667 L1.33333333,25.3333333 L0,25.3333333 L0,26.6666667 L1.33333333,26.6666667 L1.33333333,34 C1.33333333,34.3681667 1.63183333,34.6666667 2,34.6666667 L9.33333333,34.6666667 L9.33333333,36 L10.6666667,36 L10.6666667,34.6666667 L17.3333333,34.6666667 L17.3333333,36 L18.6666667,36 L18.6666667,34.6666667 L25.3333333,34.6666667 L25.3333333,36 L26.6666667,36 L26.6666667,34.6666667 L33.3333333,34.6666667 L33.3333333,36 L34.6666667,36 L34.6666667,34.6666667 L40,34.6666667 L40,33.3333333 L2.66666667,33.3333333 Z M34,25.3333333 C34.3681667,25.3333333 34.6666667,25.6318333 34.6666667,26 C34.6666667,26.3681667 34.3681667,26.6666667 34,26.6666667 C33.6318333,26.6666667 33.3333333,26.3681667 33.3333333,26 C33.3333333,25.6318333 33.6318333,25.3333333 34,25.3333333 Z M26,18.6666667 C26.3681667,18.6666667 26.6666667,18.9651667 26.6666667,19.3333333 C26.6666667,19.7015 26.3681667,20 26,20 C25.6318333,20 25.3333333,19.7015 25.3333333,19.3333333 C25.3333333,18.9651667 25.6318333,18.6666667 26,18.6666667 Z M18,26.6666667 C18.3681667,26.6666667 18.6666667,26.9651667 18.6666667,27.3333333 C18.6666667,27.7015 18.3681667,28 18,28 C17.6318333,28 17.3333333,27.7015 17.3333333,27.3333333 C17.3333333,26.9651667 17.6318333,26.6666667 18,26.6666667 Z M10,22 C10.3681667,22 10.6666667,22.2985 10.6666667,22.6666667 C10.6666667,23.0348333 10.3681667,23.3333333 10,23.3333333 C9.63183333,23.3333333 9.33333333,23.0348333 9.33333333,22.6666667 C9.33333333,22.2985 9.63183333,22 10,22 Z M34,3.33333333 C34.3681667,3.33333333 34.6666667,3.63183333 34.6666667,4 C34.6666667,4.36816667 34.3681667,4.66666667 34,4.66666667 C33.6318333,4.66666667 33.3333333,4.36816667 33.3333333,4 C33.3333333,3.63183333 33.6318333,3.33333333 34,3.33333333 Z M26,8 C26.3681667,8 26.6666667,8.2985 26.6666667,8.66666667 C26.6666667,9.03483333 26.3681667,9.33333333 26,9.33333333 C25.6318333,9.33333333 25.3333333,9.03483333 25.3333333,8.66666667 C25.3333333,8.2985 25.6318333,8 26,8 Z M17.3333333,5.33333333 C17.7015,5.33333333 18,5.63183333 18,6 C18,6.36816667 17.7015,6.66666667 17.3333333,6.66666667 C16.9651667,6.66666667 16.6666667,6.36816667 16.6666667,6 C16.6666667,5.63183333 16.9651667,5.33333333 17.3333333,5.33333333 Z M10,13.3333333 C10.3681667,13.3333333 10.6666667,13.6318333 10.6666667,14 C10.6666667,14.3681667 10.3681667,14.6666667 10,14.6666667 C9.63183333,14.6666667 9.33333333,14.3681667 9.33333333,14 C9.33333333,13.6318333 9.63183333,13.3333333 10,13.3333333 Z" id="Shape"></path>
            <rect id="Rectangle-path" x="12.6666667" y="38.6666667" width="1.33333333" height="1.33333333"></rect>
            <rect id="Rectangle-path" x="15.3333333" y="38.6666667" width="1.33333333" height="1.33333333"></rect>
            <rect id="Rectangle-path" x="18" y="38.6666667" width="1.33333333" height="1.33333333"></rect>
            <rect id="Rectangle-path" x="20.6666667" y="38.6666667" width="1.33333333" height="1.33333333"></rect>
            <rect id="Rectangle-path" x="23.3333333" y="38.6666667" width="1.33333333" height="1.33333333"></rect>
            <rect id="Rectangle-path" x="26" y="38.6666667" width="1.33333333" height="1.33333333"></rect>
        </g>
    </g>
</svg>