<svg xmlns="http://www.w3.org/2000/svg" width="40" height="40" viewBox="0 0 40 40">
    <g fill="#5A93EA" fill-rule="nonzero">
        <path d="M39.09 38.259H.832a.832.832 0 0 0 0 1.663H39.09a.832.832 0 0 0 0-1.663z"/>
        <path d="M7.485 28.278h-4.99a.832.832 0 0 0-.832.832v9.98c0 .46.373.832.832.832h4.99c.46 0 .832-.373.832-.832v-9.98a.832.832 0 0 0-.832-.832zm-.831 9.98H3.327v-8.316h3.327v8.317zM17.466 19.961h-4.99a.832.832 0 0 0-.832.832V39.09c0 .46.373.832.832.832h4.99c.459 0 .832-.373.832-.832V20.793a.832.832 0 0 0-.832-.832zm-.832 18.298h-3.327V21.624h3.327V38.26zM27.446 23.288h-4.99a.832.832 0 0 0-.832.832v14.97c0 .46.373.832.832.832h4.99c.46 0 .832-.373.832-.832V24.12a.832.832 0 0 0-.832-.832zm-.831 14.97h-3.327V24.952h3.327V38.26zM37.427 13.307h-4.99a.832.832 0 0 0-.832.832V39.09c0 .46.373.832.832.832h4.99c.459 0 .832-.373.832-.832V14.14a.832.832 0 0 0-.832-.833zm-.832 24.952h-3.327V14.97h3.327v23.288zM4.99 14.97a3.33 3.33 0 0 0-3.327 3.328 3.33 3.33 0 0 0 3.327 3.326 3.33 3.33 0 0 0 3.327-3.326A3.33 3.33 0 0 0 4.99 14.97zm0 4.991a1.665 1.665 0 0 1-1.663-1.663c0-.917.745-1.664 1.663-1.664s1.664.747 1.664 1.664c0 .916-.746 1.663-1.664 1.663zM14.97 6.654a3.33 3.33 0 0 0-3.326 3.327 3.33 3.33 0 0 0 3.327 3.326 3.33 3.33 0 0 0 3.327-3.326 3.33 3.33 0 0 0-3.327-3.327zm0 4.99a1.665 1.665 0 0 1-1.663-1.663c0-.917.746-1.664 1.664-1.664.918 0 1.663.747 1.663 1.664 0 .916-.745 1.663-1.663 1.663zM24.951 9.98a3.33 3.33 0 0 0-3.327 3.327 3.33 3.33 0 0 0 3.327 3.327 3.33 3.33 0 0 0 3.327-3.327 3.33 3.33 0 0 0-3.327-3.326zm0 4.99a1.665 1.665 0 0 1-1.663-1.663c0-.916.745-1.663 1.663-1.663s1.664.747 1.664 1.663c0 .917-.746 1.664-1.664 1.664zM34.932 0a3.33 3.33 0 0 0-3.327 3.327 3.33 3.33 0 0 0 3.327 3.327 3.33 3.33 0 0 0 3.327-3.327A3.33 3.33 0 0 0 34.932 0zm0 4.99a1.665 1.665 0 0 1-1.664-1.663c0-.917.746-1.664 1.664-1.664.918 0 1.663.747 1.663 1.664 0 .916-.745 1.663-1.663 1.663z"/>
        <path d="M33.757 4.501a.832.832 0 0 0-1.176 0l-6.454 6.454a.832.832 0 0 0 1.176 1.176l6.454-6.454a.832.832 0 0 0 0-1.176zM22.94 11.388l-5.343-1.524a.824.824 0 0 0-1.026.572.831.831 0 0 0 .57 1.028l5.343 1.524a.832.832 0 0 0 .456-1.6zM13.673 11.017a.832.832 0 0 0-1.167-.133l-6.272 5a.831.831 0 0 0 1.037 1.302l6.27-5c.36-.288.42-.81.132-1.17z"/>
    </g>
</svg>
