<svg xmlns="http://www.w3.org/2000/svg" width="17" height="22" viewBox="0 0 17 22">
    <g fill="none" fill-rule="evenodd">
        <path d="M.03.093h16.706v21.396H.031z"/>
        <path fill="#494268" d="M16.736 8.402c0-4.426-3.911-8.31-8.369-8.31C3.91.093 0 3.977 0 8.403c0 3.502 4.972 8.776 7.274 11.029-1.674.125-2.9.53-2.9 1.009 0 .58 1.788 1.049 3.993 1.049s3.993-.47 3.993-1.05c0-.479-1.226-.883-2.9-1.006 2.302-2.253 7.276-7.529 7.276-11.03zm-8.369 5.265c-3.067 0-5.56-2.477-5.56-5.522 0-3.046 2.493-5.524 5.56-5.524 3.067 0 5.562 2.478 5.562 5.524 0 3.043-2.495 5.522-5.562 5.522z"/>
    </g>
</svg>
