<?xml version="1.0" encoding="UTF-8"?>
<svg width="27px" height="26px" viewBox="0 0 27 26" version="1.1" xmlns="http://www.w3.org/2000/svg" xmlns:xlink="http://www.w3.org/1999/xlink">
    <!-- Generator: Sketch 51.3 (57544) - http://www.bohemiancoding.com/sketch -->
    <title>notifications</title>
    <desc>Created with Sketch.</desc>
    <defs></defs>
    <g id="Symbols" stroke="none" stroke-width="1" fill="none" fill-rule="evenodd">
        <g id="Top-nav" transform="translate(-1103.000000, -20.000000)">
            <g id="notifications-button-(1)" transform="translate(1103.000000, 20.000000)">
                <g id="notifications">
                    <g transform="translate(0.000000, 4.000000)" fill="#EF4564" fill-rule="nonzero" id="Shape">
                        <path d="M9.36078431,22 C10.5707843,22 11.5607843,21.01 11.5607843,19.8 L7.16078431,19.8 C7.16078431,21.01 8.15078431,22 9.36078431,22 Z M16.5107843,15.4 L16.5107843,9.35 C16.5107843,5.94 14.2007843,3.19 11.0107843,2.42 L11.0107843,1.65 C11.0107843,0.77 10.2407843,0 9.36078431,0 C8.48078431,0 7.71078431,0.77 7.71078431,1.65 L7.71078431,2.42 C4.52078431,3.19 2.21078431,5.94 2.21078431,9.35 L2.21078431,15.4 L0.0107843137,17.6 L0.0107843137,18.7 L18.7107843,18.7 L18.7107843,17.6 L16.5107843,15.4 Z"></path>
                    </g>
                    <circle id="Oval" fill="#5A93EA" fill-rule="nonzero" cx="20" cy="7" r="7"></circle>
                    <text id="2" font-family="Avenir-Heavy, Avenir" font-size="8" font-weight="600" fill="#FFFFFF">
                        <tspan x="18" y="10">2</tspan>
                    </text>
                </g>
            </g>
        </g>
    </g>
</svg>