<?xml version="1.0" encoding="UTF-8"?>
<svg width="28px" height="30px" viewBox="0 0 28 30" version="1.1" xmlns="http://www.w3.org/2000/svg" xmlns:xlink="http://www.w3.org/1999/xlink">
    <!-- Generator: Sketch 51.3 (57544) - http://www.bohemiancoding.com/sketch -->
    <title>icon/pie diagram</title>
    <desc>Created with Sketch.</desc>
    <defs></defs>
    <g id="icon/pie-diagram" stroke="none" stroke-width="1" fill="none" fill-rule="evenodd">
        <g id="diagram-(1)" fill="#5A93EA" fill-rule="nonzero">
            <path d="M24.7442578,11.7394922 L13.6362891,16.1826563 L13.6362891,4.21875 C13.6362891,3.95988281 13.4264063,3.75 13.1675391,3.75 C9.66169922,3.75 6.36574219,5.11523438 3.88675781,7.59421875 C1.40783203,10.0732031 0.0425390625,13.3691602 0.0425390625,16.875 C0.0425390625,20.3808398 1.40777344,23.6767969 3.88675781,26.1557813 C6.36574219,28.6347656 9.66175781,30 13.1675391,30 C16.6733203,30 19.9693359,28.6347656 22.4483203,26.1557813 C24.9273047,23.6767969 26.2925391,20.3808398 26.2925391,16.875 C26.2925391,15.1966406 25.9766016,13.5566016 25.3535156,12.0004687 C25.2573633,11.7601172 24.984668,11.6435156 24.7442578,11.7394922 Z M12.6987891,15.4863281 L6.16253906,6.90744141 C8.02617188,5.59382812 10.2727148,4.78863281 12.6987891,4.69634766 L12.6987891,15.4863281 Z M13.1675391,29.0625 C6.44736328,29.0625 0.980039062,23.5951758 0.980039062,16.875 C0.980039062,13.0961133 2.70919922,9.71373047 5.41746094,7.47650391 L12.7946484,17.1590625 C12.7985156,17.1641602 12.8029687,17.1685547 12.8070117,17.173418 C12.8128125,17.1803906 12.8185547,17.1873633 12.824707,17.194043 C12.8319727,17.2018945 12.8395898,17.2091602 12.8472656,17.2163672 C12.8530078,17.2217578 12.8586328,17.227207 12.8646094,17.2323047 C12.8738086,17.2400977 12.8833594,17.2471875 12.8930273,17.2542187 C12.8970117,17.2570898 12.9005859,17.2604297 12.9046289,17.2631836 C12.9060937,17.2641797 12.9076758,17.2648828 12.9091406,17.2658203 C12.9199805,17.2729687 12.9311719,17.2792969 12.9424805,17.2855078 C12.9475781,17.2883203 12.9525586,17.2914258 12.9577148,17.2940039 C12.9694336,17.2998633 12.9815039,17.3047852 12.9936328,17.3096484 C12.9988477,17.3117578 13.0038867,17.3142187 13.0091016,17.3160938 C13.0220508,17.3207227 13.0352344,17.3243555 13.0485352,17.3278125 C13.0531641,17.329043 13.0576758,17.3307422 13.0623633,17.3317969 C13.0799414,17.3358398 13.0976953,17.3388281 13.115625,17.3408203 C13.1227734,17.3416406 13.1299805,17.341582 13.1371875,17.3420508 C13.1473828,17.3426953 13.1575195,17.34375 13.1677148,17.34375 C13.1684766,17.34375 13.1691797,17.3435742 13.1699414,17.3435742 C13.1922656,17.343457 13.2146484,17.341582 13.2368555,17.3382422 C13.2430078,17.3373047 13.2489844,17.3357813 13.2551367,17.3346094 C13.2711914,17.3315625 13.2870703,17.3277539 13.302832,17.3229492 C13.3105664,17.3206055 13.3181836,17.3180859 13.3258594,17.315332 C13.3310156,17.313457 13.3362891,17.3122266 13.3414453,17.3101758 L24.6489258,12.787207 C25.1175586,14.1004687 25.3548633,15.4733203 25.3548633,16.875 C25.3550391,23.5951758 19.8877734,29.0625 13.1675391,29.0625 Z" id="Shape"></path>
            <path d="M27.6972656,8.25046875 C26.7333984,5.84320312 25.0921875,3.78996094 22.9510547,2.3128125 C22.8516211,2.24419922 22.7511328,2.17757812 22.6501758,2.11195312 C22.6457227,2.10890625 22.6412109,2.10609375 22.6366992,2.10322266 C20.5139062,0.726328125 18.0587109,0 15.5112891,0 C15.2524219,0 15.0425391,0.209882812 15.0425391,0.46875 L15.0425391,2.34363281 L15.0425391,2.34392578 L15.0425391,4.68738281 L15.0425391,4.68767578 L15.0425391,7.03113281 L15.0425391,7.03142578 L15.0425391,9.37488281 L15.0425391,9.37517578 L15.0425391,11.7186328 L15.0425391,11.7189258 L15.0425391,13.125 C15.0425391,13.2805078 15.119707,13.4259961 15.2484961,13.5131836 C15.3271875,13.5664453 15.4189453,13.59375 15.5112891,13.59375 C15.5701172,13.59375 15.6291797,13.5827344 15.6853711,13.5602344 L17.0015625,13.0337695 C17.0038477,13.0337695 17.0061328,13.0341211 17.0084766,13.0341211 C17.1270703,13.0341211 17.2456055,12.9891797 17.3367773,12.899707 L21.1536328,11.3729883 C21.155332,11.3723437 21.1569727,11.3716406 21.1586719,11.3709375 L25.0603711,9.81029297 C25.0617188,9.80970703 25.063125,9.80917969 25.0644727,9.80865234 L27.4362305,8.85996094 C27.5516602,8.81378906 27.6440625,8.72361328 27.6929883,8.60935547 C27.7419727,8.49492187 27.7434961,8.36583984 27.6972656,8.25046875 Z M22.9263867,9.65408203 L25.8722461,6.70822266 C26.0028516,6.91921875 26.1266602,7.13472656 26.2444922,7.35392578 L24.6229102,8.97550781 L22.9263867,9.65408203 Z M19.0201172,11.2166016 L24.8918555,5.34486328 C25.0463086,5.53095703 25.1942578,5.72232422 25.3372852,5.91726563 L20.7166406,10.5379688 L19.0201172,11.2166016 Z M23.0307422,3.53636719 L15.9800391,10.5870703 L15.9800391,9.56917969 L22.445625,3.10365234 C22.6455469,3.24240234 22.8403711,3.38701172 23.0307422,3.53636719 Z M15.9800391,2.53792969 L17.4300586,1.08791016 C17.7164648,1.13314453 18.0005859,1.18851563 18.2819531,1.25390625 L15.9800391,3.55582031 L15.9800391,2.53792969 Z M15.9800391,4.88167969 L19.3179492,1.54376953 C19.5692578,1.62632812 19.8176953,1.71738281 20.0632031,1.81640625 L15.9800391,5.89957031 L15.9800391,4.88167969 Z M15.9800391,7.22542969 L20.9762109,2.22925781 C21.1992773,2.34158203 21.4192969,2.46099609 21.6359766,2.58744141 L15.9800977,8.24332031 L15.9800977,7.22542969 L15.9800391,7.22542969 Z M16.2333398,0.958828125 L15.9800977,1.21207031 L15.9800977,0.946347656 C16.0646484,0.949570312 16.1490234,0.95390625 16.2333398,0.958828125 Z M15.9800391,11.9129297 L23.7485742,4.14439453 C23.9257617,4.30681641 24.0971484,4.47480469 24.2639648,4.64689453 L16.8103711,12.1004883 L15.9800391,12.4325977 L15.9800391,11.9129297 Z" id="Shape"></path>
        </g>
    </g>
</svg>