<svg xmlns="http://www.w3.org/2000/svg" width="28" height="30" viewBox="0 0 28 30">
    <g fill="#5A93EA" fill-rule="nonzero">
        <path d="M24.744 11.74l-11.108 4.443V4.219a.469.469 0 0 0-.468-.469 13.039 13.039 0 0 0-9.281 3.844 13.04 13.04 0 0 0-3.844 9.281c0 3.506 1.365 6.802 3.844 9.28A13.04 13.04 0 0 0 13.167 30a13.04 13.04 0 0 0 9.281-3.844 13.039 13.039 0 0 0 3.845-9.281c0-1.678-.316-3.318-.94-4.875a.469.469 0 0 0-.609-.26zM12.7 15.485L6.163 6.907a12.117 12.117 0 0 1 6.536-2.21v10.79zm.469 13.576C6.448 29.063.98 23.596.98 16.876c0-3.779 1.73-7.161 4.437-9.398l7.378 9.682.012.014.018.021a.45.45 0 0 0 .022.022l.018.016.028.022.012.01a.478.478 0 0 0 .038.022l.015.008c.011.006.024.01.036.016l.015.006a.461.461 0 0 0 .04.012l.013.004a.468.468 0 0 0 .054.009l.021.001.03.002h.003a.467.467 0 0 0 .067-.006l.018-.003a.453.453 0 0 0 .07-.02l.016-.005 11.308-4.523c.469 1.313.706 2.686.706 4.088 0 6.72-5.467 12.188-12.187 12.188z"/>
        <path d="M27.697 8.25a13.119 13.119 0 0 0-5.047-6.138l-.013-.009A13.04 13.04 0 0 0 15.51 0a.469.469 0 0 0-.468.469V13.125a.469.469 0 0 0 .642.435l1.317-.526h.006a.467.467 0 0 0 .329-.134l3.817-1.527.005-.002 3.901-1.56.004-.002 2.372-.949a.469.469 0 0 0 .261-.61zm-4.77 1.404l2.945-2.946c.13.211.255.427.372.646l-1.621 1.622-1.697.678zm-3.907 1.563l5.872-5.872c.154.186.302.377.445.572l-4.62 4.621-1.697.679zm4.01-7.68l-7.05 7.05V9.57l6.466-6.465c.2.138.394.283.585.432zm-7.05-1l1.45-1.45c.286.046.57.102.852.167L15.98 3.556V2.538zm0 2.345l3.338-3.338c.251.082.5.173.745.272L15.98 5.9V4.882zm0 2.343l4.996-4.996c.223.113.443.232.66.358L15.98 8.243V7.225zM16.233.96l-.253.253V.946l.253.013zm-.253 10.954l7.769-7.769c.177.163.348.33.515.503L16.81 12.1l-.83.333v-.52z"/>
    </g>
</svg>
