<svg xmlns="http://www.w3.org/2000/svg" width="20" height="20" viewBox="0 0 20 20">
    <g fill="#FFF" fill-rule="evenodd" opacity=".9">
        <path d="M9.326 6.602a1.655 1.655 0 0 0-.461.263c-.168.144-.251.359-.251.646 0 .275.078.483.234.624.115.105.274.2.478.29V6.601zM11.368 11.19c0-.303-.095-.536-.285-.703a2.127 2.127 0 0 0-.642-.35v2.165c.264-.078.477-.2.633-.371.196-.211.294-.46.294-.74z"/>
        <path d="M9.884 19.546c5.461 0 9.883-4.327 9.883-9.666 0-5.332-4.424-9.654-9.883-9.654C4.428.226 0 4.548 0 9.88c0 5.34 4.428 9.666 9.884 9.666zM7.28 10.73a.678.678 0 0 1 .501-.2c.16 0 .295.035.406.107.11.075.187.176.229.31.096.284.18.502.25.654a1.239 1.239 0 0 0 .66.61V9.808a6.135 6.135 0 0 1-.958-.362 2.007 2.007 0 0 1-.781-.675c-.198-.293-.298-.667-.298-1.127 0-.598.195-1.089.585-1.472.344-.34.834-.545 1.45-.632v-.654c0-.3.25-.545.56-.545.307 0 .557.245.557.545v.65a3.3 3.3 0 0 1 .78.197c.27.116.509.29.712.522.16.178.284.36.37.549.088.188.131.36.131.517a.605.605 0 0 1-.194.45.65.65 0 0 1-.472.19c-.349 0-.575-.184-.678-.552a1.166 1.166 0 0 0-.649-.779v2.138c.347.098.634.186.854.268.262.097.497.238.704.422.22.192.39.421.51.688.118.266.178.555.178.873 0 .396-.094.767-.287 1.113a2.23 2.23 0 0 1-.84.849c-.32.188-.695.307-1.119.364v1.419c0 .302-.25.545-.557.545a.55.55 0 0 1-.558-.545v-1.426a3.27 3.27 0 0 1-.854-.243 2.577 2.577 0 0 1-.78-.545 2.247 2.247 0 0 1-.46-.679c-.1-.234-.152-.465-.152-.69 0-.167.067-.318.2-.451z"/>
    </g>
</svg>
