<svg xmlns="http://www.w3.org/2000/svg" width="20" height="20" viewBox="0 0 20 20">
    <path fill="#FFF" fill-rule="evenodd" d="M18.649 7.72l-1.129-.162a7.86 7.86 0 0 0-.475-1.145l.684-.91c.378-.505.365-1.424-.113-1.985a10.206 10.206 0 0 0-1.134-1.134c-.563-.478-1.48-.49-1.983-.11l-.91.684a8.034 8.034 0 0 0-1.147-.476s-.07-.504-.159-1.128C12.196.732 11.657.12 11.068.057a10.08 10.08 0 0 0-2.134 0C8.347.12 7.808.732 7.72 1.354l-.16 1.128a8.28 8.28 0 0 0-1.148.476l-.908-.685c-.505-.378-1.42-.365-1.982.11-.409.349-.787.73-1.135 1.135-.478.561-.491 1.48-.113 1.985l.685.91c-.19.367-.346.75-.476 1.145l-1.126.161C.734 7.81.122 8.345.058 8.932a10.08 10.08 0 0 0-.002 2.134c.064.587.676 1.128 1.298 1.217l1.128.16c.128.396.287.777.473 1.146l-.682.91c-.378.505-.367 1.422.11 1.983.349.408.73.786 1.135 1.134.563.478 1.48.49 1.983.11l.91-.684c.37.187.75.346 1.147.476l.159 1.128c.09.622.628 1.237 1.217 1.298a10.213 10.213 0 0 0 2.134 0c.587-.061 1.126-.676 1.215-1.298l.159-1.128c.397-.13.778-.289 1.145-.476l.91.685c.505.378 1.422.367 1.985-.11.406-.349.786-.727 1.134-1.135.478-.561.49-1.478.11-1.983l-.684-.91c.19-.37.348-.75.476-1.145 0 0 .506-.074 1.128-.161.622-.09 1.234-.63 1.298-1.217a10.231 10.231 0 0 0 0-2.134c-.061-.585-.674-1.124-1.295-1.213zM10 14.45a4.45 4.45 0 1 1 0-8.902 4.45 4.45 0 0 1 0 8.902z" opacity=".9"/>
</svg>
