<?xml version="1.0" encoding="UTF-8"?>
<svg width="40px" height="32px" viewBox="0 0 40 32" version="1.1" xmlns="http://www.w3.org/2000/svg" xmlns:xlink="http://www.w3.org/1999/xlink">
    <!-- Generator: Sketch 51.3 (57544) - http://www.bohemiancoding.com/sketch -->
    <title>chart/table</title>
    <desc>Created with Sketch.</desc>
    <defs></defs>
    <g id="chart/table" stroke="none" stroke-width="1" fill="none" fill-rule="evenodd">
        <g id="table" fill="#5A93EA" fill-rule="nonzero">
            <path d="M39.2031873,0.0298804781 L0.796812749,0.0298804781 C0.356812749,0.0298804781 0,0.386613546 0,0.826693227 L0,30.249004 C0,30.6890837 0.356812749,31.0458167 0.796812749,31.0458167 L39.2031873,31.0458167 C39.6431873,31.0458167 40,30.6890837 40,30.249004 L40,0.826693227 C40,0.386613546 39.6431873,0.0298804781 39.2031873,0.0298804781 Z M9.60159363,29.4521912 L1.5936255,29.4521912 L1.5936255,25.1576892 L9.60159363,25.1576892 L9.60159363,29.4521912 Z M9.60159363,23.5639841 L1.5936255,23.5639841 L1.5936255,19.2694821 L9.60159363,19.2694821 L9.60159363,23.5639841 Z M9.60159363,17.6758566 L1.5936255,17.6758566 L1.5936255,13.3813546 L9.60159363,13.3813546 L9.60159363,17.6758566 Z M9.60159363,11.7876494 L1.5936255,11.7876494 L1.5936255,7.51163347 L9.60159363,7.51163347 L9.60159363,11.7876494 Z M19.2031873,29.4521912 L11.1952191,29.4521912 L11.1952191,25.1576892 L19.2031873,25.1576892 L19.2031873,29.4521912 Z M19.2031873,23.5639841 L11.1952191,23.5639841 L11.1952191,19.2694821 L19.2031873,19.2694821 L19.2031873,23.5639841 Z M19.2031873,17.6758566 L11.1952191,17.6758566 L11.1952191,13.3813546 L19.2031873,13.3813546 L19.2031873,17.6758566 Z M19.2031873,11.7876494 L11.1952191,11.7876494 L11.1952191,7.51163347 L19.2031873,7.51163347 L19.2031873,11.7876494 Z M28.8047809,29.4521912 L20.7968127,29.4521912 L20.7968127,25.1576892 L28.8047809,25.1576892 L28.8047809,29.4521912 Z M28.8047809,23.5639841 L20.7968127,23.5639841 L20.7968127,19.2694821 L28.8047809,19.2694821 L28.8047809,23.5639841 Z M28.8047809,17.6758566 L20.7968127,17.6758566 L20.7968127,13.3813546 L28.8047809,13.3813546 L28.8047809,17.6758566 Z M28.8047809,11.7876494 L20.7968127,11.7876494 L20.7968127,7.51163347 L28.8047809,7.51163347 L28.8047809,11.7876494 Z M38.4063745,29.4521912 L30.3984064,29.4521912 L30.3984064,25.1576892 L38.4063745,25.1576892 L38.4063745,29.4521912 Z M38.4063745,23.5639841 L30.3984064,23.5639841 L30.3984064,19.2694821 L38.4063745,19.2694821 L38.4063745,23.5639841 Z M38.4063745,17.6758566 L30.3984064,17.6758566 L30.3984064,13.3813546 L38.4063745,13.3813546 L38.4063745,17.6758566 Z M38.4063745,11.7877291 L30.3984064,11.7877291 L30.3984064,7.51171315 L38.4063745,7.51171315 L38.4063745,11.7877291 Z M38.4063745,5.89952191 L1.5936255,5.89952191 L1.5936255,1.62350598 L38.4063745,1.62350598 L38.4063745,5.89952191 Z" id="Shape"></path>
            <path d="M16.6533865,4.11354582 L31.9521912,4.11354582 C32.3921912,4.11354582 32.749004,3.75681275 32.749004,3.31673307 C32.749004,2.87665339 32.3921912,2.51992032 31.9521912,2.51992032 L16.6533865,2.51992032 C16.2133865,2.51992032 15.8565737,2.87665339 15.8565737,3.31673307 C15.8565737,3.75681275 16.2133865,4.11354582 16.6533865,4.11354582 Z" id="Shape"></path>
            <path d="M34.7410359,4.11354582 L36.4940239,4.11354582 C36.9340239,4.11354582 37.2908367,3.75681275 37.2908367,3.31673307 C37.2908367,2.87665339 36.9340239,2.51992032 36.4940239,2.51992032 L34.7410359,2.51992032 C34.3010359,2.51992032 33.9442231,2.87665339 33.9442231,3.31673307 C33.9442231,3.75681275 34.3010359,4.11354582 34.7410359,4.11354582 Z" id="Shape"></path>
        </g>
    </g>
</svg>