<?xml version="1.0"?>
<svg xmlns="http://www.w3.org/2000/svg" xmlns:xlink="http://www.w3.org/1999/xlink" version="1.1" id="Layer_1" x="0px" y="0px" viewBox="0 0 512 512" style="enable-background:new 0 0 512 512;" xml:space="preserve" width="512px" height="512px" class=""><g><g>
	<path d="M462,412h-16V190C446,85.233,360.767,0,256,0S66,85.233,66,190v222H50c-5.523,0-10,4.478-10,10v80c0,5.522,4.477,10,10,10   h412c5.523,0,10-4.478,10-10v-80C472,416.478,467.523,412,462,412z M86,190c0-93.738,76.262-170,170-170s170,76.262,170,170v222H86   V190z M452,492H60v-60h392V492z" data-original="#000000" class="active-path" data-old_color="#000000" fill="#6D9FEC"/>
	<path d="M156,340h80c5.523,0,10-4.478,10-10s-4.477-10-10-10h-80c-5.523,0-10,4.478-10,10S150.477,340,156,340z" data-original="#000000" class="active-path" data-old_color="#000000" fill="#6D9FEC"/>
	<path d="M356,320h-80c-5.523,0-10,4.478-10,10s4.477,10,10,10h80c5.523,0,10-4.478,10-10S361.523,320,356,320z" data-original="#000000" class="active-path" data-old_color="#000000" fill="#6D9FEC"/>
	<path d="M356,360H156c-5.523,0-10,4.478-10,10s4.477,10,10,10h200c5.523,0,10-4.478,10-10S361.523,360,356,360z" data-original="#000000" class="active-path" data-old_color="#000000" fill="#6D9FEC"/>
	<path d="M256,254.97c-5.51,0-10,4.48-10,10c0,5.51,4.49,10,10,10c5.51,0,10-4.49,10-10C266,259.45,261.51,254.97,256,254.97z" data-original="#000000" class="active-path" data-old_color="#000000" fill="#6D9FEC"/>
	<path d="M208.64,143.569c1.09,0,2.17-0.18,3.21-0.54c5.22-1.77,8.03-7.46,6.26-12.68c-1.4-4.12-2.11-8.45-2.11-12.85   c0-0.46,0.01-0.92,0.02-1.351v-0.029c0.65-21.301,18.54-38.62,39.87-38.62h0.18c10.64,0.02,20.66,4.18,28.21,11.71   c7.55,7.569,11.72,17.62,11.72,28.29c0.01,15.149-8.41,28.84-21.96,35.72c-8.5,4.31-15.61,10.93-20.56,19.15   c-4.89,8.12-7.48,17.46-7.48,26.989v25.61c0,5.51,4.49,10,10,10c5.51,0,10-4.49,10-10v-25.61c0-11.96,6.7-23.069,17.07-28.3   c9.74-4.93,17.97-12.43,23.79-21.71c5.97-9.53,9.14-20.55,9.14-31.85c0-8.101-1.59-15.96-4.72-23.36   c-3.02-7.14-7.35-13.56-12.86-19.07c-5.5-5.51-11.92-9.829-19.07-12.859c-7.39-3.12-15.25-4.71-23.35-4.71c-0.16,0-0.27,0-0.32,0   c-15.53,0.109-30.24,6.16-41.43,17.029c-11.19,10.86-17.66,25.391-18.21,40.891l-0.01,0.01c-0.02,0.66-0.03,1.33-0.03,2.07   c0,6.59,1.06,13.08,3.17,19.27C200.54,140.84,204.35,143.569,208.64,143.569z" data-original="#000000" class="active-path" data-old_color="#000000" fill="#6D9FEC"/>
</g></g> </svg>
