<svg xmlns="http://www.w3.org/2000/svg" width="14" height="14" viewBox="0 0 14 14">
    <g fill="#5A93EA" fill-rule="nonzero">
        <path d="M1.128 5.842c.45 0 .855-.27 1.03-.684A4.747 4.747 0 0 1 6.53 2.243c1.084 0 2.078.371 2.875.988l-.624.097a.487.487 0 0 0-.126.926l3.436 1.545a.488.488 0 0 0 .687-.442l.018-3.785a.487.487 0 0 0-.893-.273l-.473.712A6.964 6.964 0 0 0 6.53 0 6.997 6.997 0 0 0 .09 4.276a1.126 1.126 0 0 0 1.038 1.566zM12.87 8.64a1.126 1.126 0 0 0-.938-.504c-.45 0-.856.27-1.03.684a4.747 4.747 0 0 1-4.372 2.915 4.682 4.682 0 0 1-2.876-.988l.625-.097a.487.487 0 0 0 .125-.926L.97 8.18a.488.488 0 0 0-.687.442l-.018 3.785a.487.487 0 0 0 .893.273l.473-.712a6.964 6.964 0 0 0 4.9 2.01 6.997 6.997 0 0 0 6.439-4.275c.147-.348.11-.747-.098-1.061z"/>
    </g>
</svg>
