<?xml version="1.0" encoding="UTF-8"?>
<svg xmlns="http://www.w3.org/2000/svg" xmlns:xlink="http://www.w3.org/1999/xlink" width="10pt" height="10pt" viewBox="0 0 10 10" version="1.1">
<g id="surface1">
<path style=" stroke:none;fill-rule:nonzero;fill:rgb(35.294118%,57.647059%,91.764706%);fill-opacity:1;" d="M 9.746094 6.640625 C 9.605469 6.640625 9.492188 6.753906 9.492188 6.894531 L 9.492188 7.867188 C 9.492188 8.429688 9.035156 8.886719 8.472656 8.886719 L 1.527344 8.886719 C 0.964844 8.886719 0.507812 8.429688 0.507812 7.867188 L 0.507812 6.894531 C 0.507812 6.753906 0.394531 6.640625 0.253906 6.640625 C 0.113281 6.640625 0 6.753906 0 6.894531 L 0 7.867188 C 0 8.710938 0.683594 9.394531 1.527344 9.394531 L 8.472656 9.394531 C 9.316406 9.394531 10 8.710938 10 7.867188 L 10 6.894531 C 10 6.753906 9.886719 6.640625 9.746094 6.640625 Z M 9.746094 6.640625 "/>
<path style=" stroke:none;fill-rule:nonzero;fill:rgb(35.294118%,57.647059%,91.764706%);fill-opacity:1;" d="M 8.199219 7.644531 L 1.800781 7.644531 C 1.660156 7.644531 1.546875 7.757812 1.546875 7.898438 C 1.546875 8.039062 1.660156 8.152344 1.800781 8.152344 L 8.199219 8.152344 C 8.339844 8.152344 8.453125 8.039062 8.453125 7.898438 C 8.453125 7.757812 8.339844 7.644531 8.199219 7.644531 Z M 8.199219 7.644531 "/>
<path style=" stroke:none;fill-rule:nonzero;fill:rgb(35.294118%,57.647059%,91.764706%);fill-opacity:1;" d="M 7.554688 2.671875 L 5.425781 0.769531 C 5.183594 0.550781 4.816406 0.550781 4.574219 0.769531 L 2.445312 2.671875 C 2.339844 2.765625 2.328125 2.925781 2.421875 3.03125 C 2.515625 3.136719 2.679688 3.144531 2.78125 3.050781 L 4.746094 1.300781 L 4.746094 6.234375 C 4.746094 6.375 4.859375 6.488281 5 6.488281 C 5.140625 6.488281 5.253906 6.375 5.253906 6.234375 L 5.253906 1.300781 L 7.21875 3.050781 C 7.265625 3.09375 7.328125 3.117188 7.386719 3.117188 C 7.457031 3.117188 7.527344 3.089844 7.578125 3.03125 C 7.671875 2.925781 7.660156 2.765625 7.554688 2.671875 Z M 7.554688 2.671875 "/>
</g>
</svg>
